<?xml version="1.0" standalone="no"?>
<!DOCTYPE svg PUBLIC "-//W3C//DTD SVG 20010904//EN"
 "http://www.w3.org/TR/2001/REC-SVG-20010904/DTD/svg10.dtd">
<svg version="1.0" xmlns="http://www.w3.org/2000/svg"
 width="900.000000pt" height="660.000000pt" viewBox="0 0 900.000000 660.000000"
 preserveAspectRatio="xMidYMid meet">

<g transform="translate(0.000000,660.000000) scale(0.100000,-0.100000)"
fill="#000000" stroke="none">
<path d="M6770 6595 c-8 -2 -49 -9 -90 -15 -393 -64 -782 -397 -1038 -890
-221 -424 -308 -881 -257 -1350 8 -74 19 -159 25 -189 17 -92 22 -87 -88 -94
-386 -23 -749 -203 -1013 -503 -155 -176 -278 -399 -612 -1119 -74 -159 -170
-362 -213 -449 -76 -154 -81 -161 -158 -229 -43 -38 -81 -65 -86 -60 -4 4 -17
34 -30 67 -40 100 -147 226 -242 284 -41 26 -40 21 -99 247 -23 88 -45 164
-49 168 -4 5 -77 -59 -161 -141 l-154 -149 -75 -7 c-254 -24 -496 -136 -690
-321 l-65 -62 -203 -20 c-112 -12 -206 -23 -209 -26 -3 -3 42 -84 100 -179
103 -170 106 -175 97 -214 -26 -111 -2 -313 50 -414 12 -23 19 -44 17 -46 -3
-4 -218 -43 -234 -44 -2 0 -3 -9 -3 -20 0 -25 18 -25 165 -1 l109 18 19 -23
c10 -13 18 -27 18 -31 1 -4 -55 -33 -122 -64 -125 -58 -157 -82 -130 -98 9 -6
55 11 136 49 164 77 160 76 195 47 l30 -25 -115 -92 c-75 -59 -115 -99 -115
-111 0 -10 6 -19 14 -19 7 0 65 41 127 91 63 50 119 93 124 95 6 3 45 -11 86
-30 41 -19 115 -42 164 -52 139 -26 139 -25 29 -69 -393 -155 -518 -244 -540
-384 l-7 -41 177 0 176 0 49 30 c81 50 228 115 386 170 534 187 1032 432 1323
650 115 86 201 168 335 320 441 498 685 717 942 845 168 83 262 107 420 108
187 1 303 -34 465 -141 159 -106 276 -246 371 -446 130 -275 185 -569 196
-1040 l6 -259 -49 6 c-116 13 -199 -36 -229 -135 -8 -28 -15 -64 -15 -80 l0
-28 254 0 253 0 36 188 c158 812 236 1632 208 2172 -34 663 -160 1007 -471
1285 -179 160 -433 278 -680 316 -96 15 -90 7 -115 159 -40 253 -38 517 5 770
108 634 458 1174 905 1395 149 74 261 105 405 112 235 12 414 -54 578 -211
153 -146 233 -323 233 -516 0 -102 -16 -170 -58 -255 -110 -220 -319 -377
-503 -379 -66 -1 -84 3 -142 32 -43 21 -83 51 -114 85 -147 163 -145 359 7
502 33 30 59 63 59 73 0 24 -36 62 -59 62 -27 0 -104 -63 -144 -118 -139 -188
-116 -432 55 -602 218 -216 543 -188 798 69 95 95 142 173 181 301 32 103 32
287 1 405 -46 169 -137 320 -265 441 -131 125 -291 202 -467 223 -78 10 -184
13 -220 6z m-3800 -4903 c0 -51 -22 -123 -50 -163 l-23 -32 -19 51 c-21 56
-58 98 -102 117 l-30 13 35 17 c50 26 78 33 137 34 l52 1 0 -38z m329 -63
c-33 -60 -33 -61 -42 -34 -8 23 -5 31 24 61 49 50 54 42 18 -27z m-498 -93
c20 -17 44 -36 54 -42 19 -10 19 -11 -3 -23 -34 -18 -130 -33 -164 -26 l-31 7
7 55 c6 56 26 103 54 136 16 17 17 16 32 -28 9 -28 30 -60 51 -79z m-766 -314
c22 -15 41 -35 43 -45 6 -29 -135 -154 -153 -136 -2 3 0 22 6 43 12 44 -2 119
-28 148 -8 9 -12 21 -9 26 10 16 99 -6 141 -36z m-176 17 c-18 -35 -7 -140 20
-177 l22 -32 -37 0 c-46 0 -111 30 -148 69 -23 24 -26 32 -17 49 14 26 80 78
123 97 45 19 51 19 37 -6z"/>
</g>
</svg>
